<svg version="1.1" id="Layer_1" xmlns="http://www.w3.org/2000/svg" xmlns:xlink="http://www.w3.org/1999/xlink" x="0px" y="0px" viewBox="0 0 40 40" style="enable-background:new 0 0 495 495;" xml:space="preserve" width="40" height="40"><g><path style="fill:#00DDC2;" points="247.5,0 247.5,40 455,40 455,455 247.5,455 247.5,495 495,495 495,0 	" d="M20 0L20 3.232L36.768 3.232L36.768 36.768L20 36.768L20 40L40 40L40 0Z"/><path style="fill:#00EED1;" points="40,455 40,40 247.5,40 247.5,0 0,0 0,495 247.5,495 247.5,455 	" d="M3.232 36.768L3.232 3.232L20 3.232L20 0L0 0L0 40L20 40L20 36.768Z"/><path style="fill:#00EED1;" d="M20 32.727C27.028 32.727 32.727 27.029 32.727 20c0 -7.03 -5.699 -12.726 -12.728 -12.726C12.971 7.273 7.273 12.97 7.273 20c0 7.029 5.698 12.727 12.727 12.727m4.898 -6.682c-0.206 0 -0.346 -0.071 -0.538 -0.188 -1.845 -1.116 -4.145 -1.702 -6.585 -1.702 -1.362 0 -2.733 0.174 -4.015 0.441 -0.209 0.046 -0.47 0.125 -0.627 0.125 -0.484 0 -0.805 -0.383 -0.805 -0.8 0 -0.534 0.307 -0.801 0.691 -0.874 1.573 -0.359 3.138 -0.563 4.764 -0.563 2.784 0 5.266 0.639 7.401 1.921 0.318 0.184 0.504 0.374 0.504 0.845 0 0.46 -0.373 0.796 -0.791 0.796m1.387 -3.368c-0.277 0 -0.45 -0.111 -0.638 -0.221 -2.071 -1.228 -4.94 -2.044 -8.081 -2.044 -1.612 0 -3.003 0.226 -4.154 0.532 -0.249 0.069 -0.388 0.143 -0.619 0.143 -0.547 0 -0.994 -0.446 -0.994 -0.998 0 -0.541 0.263 -0.913 0.791 -1.063 1.431 -0.393 2.892 -0.696 5.018 -0.696 3.332 0 6.555 0.83 9.088 2.346 0.424 0.244 0.581 0.553 0.581 1.006 0 0.551 -0.439 0.996 -0.992 0.996m-14.459 -7.937c1.816 -0.535 3.84 -0.783 6.042 -0.783 3.736 0 7.669 0.768 10.541 2.455 0.387 0.22 0.656 0.55 0.656 1.156 -0.001 0.693 -0.559 1.191 -1.202 1.191 -0.258 0 -0.412 -0.063 -0.654 -0.196 -2.304 -1.381 -5.879 -2.141 -9.336 -2.141 -1.726 0 -3.478 0.176 -5.084 0.611 -0.186 0.046 -0.418 0.139 -0.653 0.139 -0.678 0 -1.199 -0.537 -1.199 -1.217 0 -0.691 0.428 -1.079 0.89 -1.215"/></g></svg>