<svg fill="#000000" version="1.1" id="Layer_1" xmlns="http://www.w3.org/2000/svg" xmlns:xlink="http://www.w3.org/1999/xlink" width="40px" height="40px" viewBox="0 0 5 5" enable-background="new 0 0 100 100" xml:space="preserve"><g><path d="M3.849 2.5c0 -0.042 -0.024 -0.079 -0.058 -0.098L1.327 0.98a0.112 0.112 0 0 0 -0.064 -0.02 0.112 0.112 0 0 0 -0.112 0.112c0 0.004 0.001 0.008 0.001 0.013h-0.001v2.857h0.001a0.112 0.112 0 0 0 0.111 0.1 0.11 0.11 0 0 0 0.056 -0.015l0.001 0.002L3.794 2.599l-0.001 -0.002A0.112 0.112 0 0 0 3.849 2.5"/></g></svg> 
