<svg width="16px" height="16px" viewBox="0 0 0.3 0.3" fill="none" xmlns="http://www.w3.org/2000/svg"><path d="M0.28 0.15A0.13 0.13 0 0 1 0.15 0.28v0.02A0.15 0.15 0 0 0 0.3 0.15zM0.15 0.28A0.13 0.13 0 0 1 0.02 0.15H0A0.15 0.15 0 0 0 0.15 0.3zM0.02 0.15A0.13 0.13 0 0 1 0.15 0.02V0A0.15 0.15 0 0 0 0 0.15zM0.15 0.02A0.13 0.13 0 0 1 0.28 0.15h0.02A0.15 0.15 0 0 0 0.15 0zm-0.077 0.182c0.02 -0.005 0.044 -0.007 0.068 -0.005 0.024 0.002 0.047 0.009 0.064 0.021l0.011 -0.016c-0.021 -0.015 -0.048 -0.022 -0.074 -0.025a0.23 0.23 0 0 0 -0.075 0.005zm-0.007 -0.042c0.069 -0.012 0.117 -0.006 0.157 0.023l0.012 -0.016C0.189 0.133 0.135 0.127 0.063 0.14zm-0.005 -0.043c0.027 -0.01 0.06 -0.014 0.092 -0.011 0.032 0.003 0.064 0.012 0.087 0.028l0.011 -0.017c-0.027 -0.019 -0.062 -0.029 -0.097 -0.031 -0.035 -0.003 -0.071 0.001 -0.101 0.012z" fill="#fff"/></svg>